<?xml version="1.0" encoding="utf-8"?>
<svg version="1.1" xmlns:xlink="http://www.w3.org/1999/xlink" width="43px" height="33px" xmlns="http://www.w3.org/2000/svg">
  <g transform="matrix(1 0 0 1 -304 -248 )">
    <path d="M 42.2232258064516 4.55555555555556  C 42.7410752688172 5.07407407407407  43 5.7037037037037  43 6.44444444444444  C 43 7.18518518518518  42.7410752688172 7.81481481481481  42.2232258064516 8.33333333333333  L 22.138064516129 28.4444444444444  L 18.3651612903226 32.2222222222222  C 17.847311827957 32.7407407407407  17.2184946236559 33  16.4787096774194 33  C 15.7389247311828 33  15.1101075268817 32.7407407407407  14.5922580645161 32.2222222222222  L 10.8193548387097 28.4444444444444  L 0.776774193548387 18.3888888888889  C 0.258924731182796 17.8703703703704  0 17.2407407407407  0 16.5  C 0 15.7592592592593  0.258924731182796 15.1296296296296  0.776774193548387 14.6111111111111  L 4.54967741935484 10.8333333333333  C 5.06752688172043 10.3148148148148  5.69634408602151 10.0555555555556  6.43612903225806 10.0555555555556  C 7.17591397849463 10.0555555555556  7.8047311827957 10.3148148148148  8.32258064516129 10.8333333333333  L 16.4787096774194 19.0277777777778  L 34.6774193548387 0.777777777777778  C 35.1952688172043 0.259259259259258  35.8240860215054 0  36.5638709677419 0  C 37.3036559139785 0  37.9324731182796 0.259259259259258  38.4503225806452 0.777777777777778  L 42.2232258064516 4.55555555555556  Z " fill-rule="nonzero" fill="#cce3da" stroke="none" transform="matrix(1 0 0 1 304 248 )" />
  </g>
</svg>