<?xml version="1.0" encoding="utf-8"?>
<svg version="1.1" xmlns:xlink="http://www.w3.org/1999/xlink" width="34px" height="26px" xmlns="http://www.w3.org/2000/svg">
  <g transform="matrix(1 0 0 1 -170 -253 )">
    <path d="M 33.3858064516129 3.58922558922559  C 33.7952688172043 3.99775533108866  34 4.49382716049383  34 5.07744107744108  C 34 5.66105499438832  33.7952688172043 6.15712682379349  33.3858064516129 6.56565656565656  L 17.5045161290323 22.4107744107744  L 14.5212903225806 25.3872053872054  C 14.1118279569892 25.7957351290685  13.614623655914 26  13.0296774193548 26  C 12.4447311827957 26  11.9475268817204 25.7957351290685  11.538064516129 25.3872053872054  L 8.55483870967742 22.4107744107744  L 0.614193548387097 14.4882154882155  C 0.204731182795699 14.0796857463524  0 13.5836139169472  0 13  C 0 12.4163860830527  0.204731182795699 11.9203142536476  0.614193548387097 11.5117845117845  L 3.59741935483871 8.53535353535354  C 4.00688172043011 8.12682379349046  4.50408602150538 7.92255892255892  5.08903225806452 7.92255892255892  C 5.67397849462366 7.92255892255892  6.17118279569893 8.12682379349046  6.58064516129032 8.53535353535354  L 13.0296774193548 14.9915824915825  L 27.4193548387097 0.612794612794613  C 27.8288172043011 0.204264870931537  28.3260215053764 0  28.9109677419355 0  C 29.4959139784946 0  29.9931182795699 0.204264870931537  30.4025806451613 0.612794612794613  L 33.3858064516129 3.58922558922559  Z " fill-rule="nonzero" fill="#cce3da" stroke="none" transform="matrix(1 0 0 1 170 253 )" />
  </g>
</svg>