<?xml version="1.0" encoding="utf-8"?>
<svg version="1.1" xmlns:xlink="http://www.w3.org/1999/xlink" width="33px" height="33px" xmlns="http://www.w3.org/2000/svg">
  <g transform="matrix(1 0 0 1 -173 -248 )">
    <path d="M 0.662207357859532 26  L 32.3377926421405 26  L 32.9816053511706 31.6925223214286  C 33.0183946488294 32.0362723214286  32.9202898550725 32.3431919642857  32.6872909698997 32.61328125  C 32.4542920847269 32.87109375  32.159977703456 33  31.804347826087 33  L 1.19565217391304 33  C 0.840022296544036 33  0.545707915273133 32.87109375  0.312709030100334 32.61328125  C 0.0797101449275362 32.3431919642857  -0.0183946488294314 32.0362723214286  0.0183946488294314 31.6925223214286  L 0.662207357859532 26  Z M 30.2408026755853 9.732421875  C 30.4615384615385 9.93498883928572  30.5903010033445 10.18359375  30.6270903010033 10.4782366071429  L 32.2090301003344 24.75  L 0.790969899665552 24.75  L 2.37290969899666 10.4782366071429  C 2.40969899665552 10.18359375  2.53846153846154 9.93498883928572  2.75919732441472 9.732421875  C 2.97993311036789 9.52985491071428  3.24358974358974 9.42857142857143  3.55016722408027 9.42857142857143  L 8.25919732441472 9.42857142857143  L 8.25919732441472 11.7857142857143  C 8.25919732441472 12.4363839285714  8.48913043478261 12.9919084821429  8.94899665551839 13.4522879464286  C 9.40886287625418 13.9126674107143  9.96376811594203 14.1428571428571  10.6137123745819 14.1428571428571  C 11.2636566332219 14.1428571428571  11.8185618729097 13.9126674107143  12.2784280936455 13.4522879464286  C 12.7382943143813 12.9919084821429  12.9682274247492 12.4363839285714  12.9682274247492 11.7857142857143  L 12.9682274247492 9.42857142857143  L 20.0317725752508 9.42857142857143  L 20.0317725752508 11.7857142857143  C 20.0317725752508 12.4363839285714  20.2617056856187 12.9919084821429  20.7215719063545 13.4522879464286  C 21.1814381270903 13.9126674107143  21.7363433667782 14.1428571428571  22.3862876254181 14.1428571428571  C 23.036231884058 14.1428571428571  23.5911371237458 13.9126674107143  24.0510033444816 13.4522879464286  C 24.5108695652174 12.9919084821429  24.7408026755853 12.4363839285714  24.7408026755853 11.7857142857143  L 24.7408026755853 9.42857142857143  L 29.4498327759197 9.42857142857143  C 29.7564102564103 9.42857142857143  30.0200668896321 9.52985491071428  30.2408026755853 9.732421875  Z M 21.4941471571906 2.07170758928572  C 22.873745819398 3.45284598214286  23.5635451505017 5.11941964285714  23.5635451505017 7.07142857142857  L 23.5635451505017 11.7857142857143  C 23.5635451505017 12.1049107142857  23.4470457079153 12.3811383928571  23.2140468227425 12.6143973214286  C 22.9810479375697 12.84765625  22.7051282051282 12.9642857142857  22.3862876254181 12.9642857142857  C 22.0674470457079 12.9642857142857  21.7915273132664 12.84765625  21.5585284280936 12.6143973214286  C 21.3255295429209 12.3811383928571  21.2090301003344 12.1049107142857  21.2090301003344 11.7857142857143  L 21.2090301003344 7.07142857142857  C 21.2090301003344 5.77008928571429  20.7491638795987 4.65904017857143  19.8294314381271 3.73828125  C 18.9096989966555 2.81752232142857  17.7998885172798 2.35714285714286  16.5 2.35714285714286  C 15.2001114827202 2.35714285714286  14.0903010033445 2.81752232142857  13.1705685618729 3.73828125  C 12.2508361204013 4.65904017857143  11.7909698996656 5.77008928571429  11.7909698996656 7.07142857142857  L 11.7909698996656 11.7857142857143  C 11.7909698996656 12.1049107142857  11.6744704570792 12.3811383928571  11.4414715719064 12.6143973214286  C 11.2084726867336 12.84765625  10.9325529542921 12.9642857142857  10.6137123745819 12.9642857142857  C 10.2948717948718 12.9642857142857  10.0189520624303 12.84765625  9.78595317725753 12.6143973214286  C 9.55295429208473 12.3811383928571  9.43645484949833 12.1049107142857  9.43645484949833 11.7857142857143  L 9.43645484949833 7.07142857142857  C 9.43645484949833 5.11941964285714  10.126254180602 3.45284598214286  11.5058528428094 2.07170758928572  C 12.8854515050167 0.690569196428572  14.5501672240803 0  16.5 0  C 18.4498327759197 0  20.1145484949833 0.690569196428572  21.4941471571906 2.07170758928572  Z " fill-rule="nonzero" fill="#2699fb" stroke="none" transform="matrix(1 0 0 1 173 248 )" />
  </g>
</svg>