<?xml version="1.0" encoding="utf-8"?>
<svg version="1.1" xmlns:xlink="http://www.w3.org/1999/xlink" width="26px" height="26px" xmlns="http://www.w3.org/2000/svg">
  <g transform="matrix(1 0 0 1 -67 -253 )">
    <path d="M 0.521739130434783 20  L 25.4782608695652 20  L 25.9855072463768 24.9698660714286  C 26.0144927536232 25.2406994047619  25.9371980676328 25.4825148809524  25.7536231884058 25.6953125  C 25.5700483091787 25.8984375  25.3381642512077 26  25.0579710144928 26  L 0.942028985507246 26  C 0.661835748792271 26  0.429951690821256 25.8984375  0.246376811594203 25.6953125  C 0.0628019323671498 25.4825148809524  -0.0144927536231884 25.2406994047619  0.0144927536231884 24.9698660714286  L 0.521739130434783 20  Z M 23.8260869565217 7.66796875  C 24 7.82756696428572  24.1014492753623 8.0234375  24.1304347826087 8.25558035714286  L 25.3768115942029 19  L 0.623188405797101 19  L 1.8695652173913 8.25558035714286  C 1.89855072463768 8.0234375  2 7.82756696428572  2.17391304347826 7.66796875  C 2.34782608695652 7.50837053571428  2.55555555555556 7.42857142857143  2.79710144927536 7.42857142857143  L 6.50724637681159 7.42857142857143  L 6.50724637681159 9.28571428571428  C 6.50724637681159 9.79836309523809  6.68840579710145 10.2360491071429  7.05072463768116 10.5987723214286  C 7.41304347826087 10.9614955357143  7.85024154589372 11.1428571428571  8.36231884057971 11.1428571428571  C 8.8743961352657 11.1428571428571  9.31159420289855 10.9614955357143  9.67391304347826 10.5987723214286  C 10.036231884058 10.2360491071429  10.2173913043478 9.79836309523809  10.2173913043478 9.28571428571428  L 10.2173913043478 7.42857142857143  L 15.7826086956522 7.42857142857143  L 15.7826086956522 9.28571428571428  C 15.7826086956522 9.79836309523809  15.963768115942 10.2360491071429  16.3260869565217 10.5987723214286  C 16.6884057971014 10.9614955357143  17.1256038647343 11.1428571428571  17.6376811594203 11.1428571428571  C 18.1497584541063 11.1428571428571  18.5869565217391 10.9614955357143  18.9492753623188 10.5987723214286  C 19.3115942028986 10.2360491071429  19.4927536231884 9.79836309523809  19.4927536231884 9.28571428571428  L 19.4927536231884 7.42857142857143  L 23.2028985507246 7.42857142857143  C 23.4444444444444 7.42857142857143  23.6521739130435 7.50837053571428  23.8260869565217 7.66796875  Z M 16.9347826086957 1.63225446428572  C 18.0217391304348 2.72042410714286  18.5652173913043 4.03348214285714  18.5652173913043 5.57142857142857  L 18.5652173913043 9.28571428571428  C 18.5652173913043 9.53720238095238  18.4734299516908 9.75483630952381  18.2898550724638 9.93861607142857  C 18.1062801932367 10.1223958333333  17.8888888888889 10.2142857142857  17.6376811594203 10.2142857142857  C 17.3864734299517 10.2142857142857  17.1690821256039 10.1223958333333  16.9855072463768 9.93861607142857  C 16.8019323671498 9.75483630952381  16.7101449275362 9.53720238095238  16.7101449275362 9.28571428571428  L 16.7101449275362 5.57142857142857  C 16.7101449275362 4.54613095238095  16.3478260869565 3.67075892857143  15.6231884057971 2.9453125  C 14.8985507246377 2.21986607142857  14.024154589372 1.85714285714286  13 1.85714285714286  C 11.975845410628 1.85714285714286  11.1014492753623 2.21986607142857  10.3768115942029 2.9453125  C 9.65217391304348 3.67075892857143  9.28985507246377 4.54613095238095  9.28985507246377 5.57142857142857  L 9.28985507246377 9.28571428571428  C 9.28985507246377 9.53720238095238  9.19806763285024 9.75483630952381  9.01449275362319 9.93861607142857  C 8.83091787439614 10.1223958333333  8.61352657004831 10.2142857142857  8.36231884057971 10.2142857142857  C 8.11111111111111 10.2142857142857  7.89371980676329 10.1223958333333  7.71014492753623 9.93861607142857  C 7.52657004830918 9.75483630952381  7.43478260869565 9.53720238095238  7.43478260869565 9.28571428571428  L 7.43478260869565 5.57142857142857  C 7.43478260869565 4.03348214285714  7.97826086956522 2.72042410714286  9.06521739130435 1.63225446428572  C 10.1521739130435 0.544084821428572  11.463768115942 0  13 0  C 14.536231884058 0  15.8478260869565 0.544084821428572  16.9347826086957 1.63225446428572  Z " fill-rule="nonzero" fill="#2699fb" stroke="none" transform="matrix(1 0 0 1 67 253 )" />
  </g>
</svg>