<?xml version="1.0" encoding="utf-8"?>
<svg version="1.1" xmlns:xlink="http://www.w3.org/1999/xlink" width="40px" height="33px" xmlns="http://www.w3.org/2000/svg">
  <g transform="matrix(1 0 0 1 -442 -248 )">
    <path d="M 12.4537037037037 29.109375  C 13.0401234567901 28.515625  13.3333333333333 27.8125  13.3333333333333 27  C 13.3333333333333 26.1875  13.0401234567901 25.484375  12.4537037037037 24.890625  C 11.8672839506173 24.296875  11.1728395061728 24  10.3703703703704 24  C 9.5679012345679 24  8.87345679012346 24.296875  8.28703703703704 24.890625  C 7.70061728395062 25.484375  7.40740740740741 26.1875  7.40740740740741 27  C 7.40740740740741 27.8125  7.70061728395062 28.515625  8.28703703703704 29.109375  C 8.87345679012346 29.703125  9.5679012345679 30  10.3703703703704 30  C 11.1728395061728 30  11.8672839506173 29.703125  12.4537037037037 29.109375  Z M 4.44444444444444 14.296875  L 4.44444444444444 15  L 13.3333333333333 15  L 13.3333333333333 9  L 9.67592592592593 9  C 9.47530864197531 9  9.30555555555556 9.0703125  9.16666666666667 9.2109375  L 4.65277777777778 13.78125  C 4.51388888888889 13.921875  4.44444444444444 14.09375  4.44444444444444 14.296875  Z M 33.1944444444444 29.109375  C 33.7808641975309 28.515625  34.0740740740741 27.8125  34.0740740740741 27  C 34.0740740740741 26.1875  33.7808641975309 25.484375  33.1944444444444 24.890625  C 32.608024691358 24.296875  31.9135802469136 24  31.1111111111111 24  C 30.3086419753086 24  29.6141975308642 24.296875  29.0277777777778 24.890625  C 28.4413580246914 25.484375  28.1481481481481 26.1875  28.1481481481481 27  C 28.1481481481481 27.8125  28.4413580246914 28.515625  29.0277777777778 29.109375  C 29.6141975308642 29.703125  30.3086419753086 30  31.1111111111111 30  C 31.9135802469136 30  32.608024691358 29.703125  33.1944444444444 29.109375  Z M 39.5601851851852 0.445312500000002  C 39.8533950617284 0.742187499999995  40 1.09375  40 1.5  L 40 25.5  C 40 25.734375  39.9691358024691 25.94140625  39.9074074074074 26.12109375  C 39.8456790123457 26.30078125  39.741512345679 26.4453125  39.5949074074074 26.5546875  C 39.4483024691358 26.6640625  39.320987654321 26.75390625  39.212962962963 26.82421875  C 39.1049382716049 26.89453125  38.9236111111111 26.94140625  38.6689814814815 26.96484375  C 38.4143518518518 26.98828125  38.2407407407407 27.00390625  38.1481481481482 27.01171875  C 38.0555555555556 27.01953125  37.8587962962963 27.01953125  37.5578703703704 27.01171875  C 37.2569444444444 27.00390625  37.0833333333333 27  37.037037037037 27  C 37.037037037037 28.65625  36.4583333333333 30.0703125  35.3009259259259 31.2421875  C 34.1435185185185 32.4140625  32.7469135802469 33  31.1111111111111 33  C 29.4753086419753 33  28.0787037037037 32.4140625  26.9212962962963 31.2421875  C 25.7638888888889 30.0703125  25.1851851851852 28.65625  25.1851851851852 27  L 16.2962962962963 27  C 16.2962962962963 28.65625  15.7175925925926 30.0703125  14.5601851851852 31.2421875  C 13.4027777777778 32.4140625  12.0061728395062 33  10.3703703703704 33  C 8.73456790123457 33  7.33796296296296 32.4140625  6.18055555555556 31.2421875  C 5.02314814814815 30.0703125  4.44444444444444 28.65625  4.44444444444444 27  L 2.96296296296296 27  C 2.91666666666667 27  2.74305555555556 27.00390625  2.44212962962963 27.01171875  C 2.1412037037037 27.01953125  1.94444444444444 27.01953125  1.85185185185185 27.01171875  C 1.75925925925926 27.00390625  1.58564814814815 26.98828125  1.33101851851852 26.96484375  C 1.07638888888889 26.94140625  0.895061728395062 26.89453125  0.787037037037037 26.82421875  C 0.679012345679013 26.75390625  0.551697530864198 26.6640625  0.405092592592593 26.5546875  C 0.258487654320988 26.4453125  0.154320987654321 26.30078125  0.0925925925925926 26.12109375  C 0.0308641975308644 25.94140625  0 25.734375  0 25.5  C 0 25.09375  0.146604938271605 24.7421875  0.439814814814815 24.4453125  C 0.733024691358025 24.1484375  1.08024691358025 24  1.48148148148148 24  L 1.48148148148148 16.5  C 1.48148148148148 16.375  1.47762345679012 16.1015625  1.46990740740741 15.6796875  C 1.46219135802469 15.2578125  1.46219135802469 14.9609375  1.46990740740741 14.7890625  C 1.47762345679012 14.6171875  1.49691358024691 14.34765625  1.52777777777778 13.98046875  C 1.55864197530864 13.61328125  1.6087962962963 13.32421875  1.67824074074074 13.11328125  C 1.74768518518519 12.90234375  1.85570987654321 12.6640625  2.00231481481481 12.3984375  C 2.14891975308642 12.1328125  2.32253086419753 11.8984375  2.52314814814815 11.6953125  L 7.10648148148148 7.0546875  C 7.39969135802469 6.7578125  7.78935185185185 6.5078125  8.27546296296296 6.3046875  C 8.76157407407408 6.1015625  9.21296296296296 6  9.62962962962963 6  L 13.3333333333333 6  L 13.3333333333333 1.5  C 13.3333333333333 1.09375  13.4799382716049 0.742187499999995  13.7731481481481 0.445312500000002  C 14.0663580246914 0.148437499999997  14.4135802469136 0  14.8148148148148 0  L 38.5185185185185 0  C 38.9197530864198 0  39.266975308642 0.148437499999997  39.5601851851852 0.445312500000002  Z " fill-rule="nonzero" fill="#bce0fd" stroke="none" transform="matrix(1 0 0 1 442 248 )" />
  </g>
</svg>