<?xml version="1.0" encoding="utf-8"?>
<svg version="1.1" xmlns:xlink="http://www.w3.org/1999/xlink" width="31px" height="26px" xmlns="http://www.w3.org/2000/svg">
  <g transform="matrix(1 0 0 1 -278 -253 )">
    <path d="M 9.65162037037037 22.9346590909091  C 10.1060956790123 22.4668560606061  10.3333333333333 21.9128787878788  10.3333333333333 21.2727272727273  C 10.3333333333333 20.6325757575758  10.1060956790123 20.0785984848485  9.65162037037037 19.6107954545455  C 9.1971450617284 19.1429924242424  8.65895061728395 18.9090909090909  8.03703703703704 18.9090909090909  C 7.41512345679012 18.9090909090909  6.87692901234568 19.1429924242424  6.4224537037037 19.6107954545455  C 5.96797839506173 20.0785984848485  5.74074074074074 20.6325757575758  5.74074074074074 21.2727272727273  C 5.74074074074074 21.9128787878788  5.96797839506173 22.4668560606061  6.4224537037037 22.9346590909091  C 6.87692901234568 23.4024621212121  7.41512345679012 23.6363636363636  8.03703703703704 23.6363636363636  C 8.65895061728395 23.6363636363636  9.1971450617284 23.4024621212121  9.65162037037037 22.9346590909091  Z M 3.44444444444444 11.2642045454545  L 3.44444444444444 11.8181818181818  L 10.3333333333333 11.8181818181818  L 10.3333333333333 7.09090909090909  L 7.49884259259259 7.09090909090909  C 7.34336419753086 7.09090909090909  7.21180555555556 7.14630681818182  7.10416666666667 7.25710227272727  L 3.60590277777778 10.8579545454545  C 3.49826388888889 10.96875  3.44444444444444 11.1041666666667  3.44444444444444 11.2642045454545  Z M 25.7256944444444 22.9346590909091  C 26.1801697530864 22.4668560606061  26.4074074074074 21.9128787878788  26.4074074074074 21.2727272727273  C 26.4074074074074 20.6325757575758  26.1801697530864 20.0785984848485  25.7256944444444 19.6107954545455  C 25.2712191358025 19.1429924242424  24.733024691358 18.9090909090909  24.1111111111111 18.9090909090909  C 23.4891975308642 18.9090909090909  22.9510030864198 19.1429924242424  22.4965277777778 19.6107954545455  C 22.0420524691358 20.0785984848485  21.8148148148148 20.6325757575758  21.8148148148148 21.2727272727273  C 21.8148148148148 21.9128787878788  22.0420524691358 22.4668560606061  22.4965277777778 22.9346590909091  C 22.9510030864198 23.4024621212121  23.4891975308642 23.6363636363636  24.1111111111111 23.6363636363636  C 24.733024691358 23.6363636363636  25.2712191358025 23.4024621212121  25.7256944444444 22.9346590909091  Z M 30.6591435185185 0.350852272727274  C 30.8863811728395 0.584753787878784  31 0.861742424242423  31 1.18181818181818  L 31 20.0909090909091  C 31 20.2755681818182  30.9760802469136 20.4386837121212  30.9282407407407 20.5802556818182  C 30.8804012345679 20.7218276515152  30.7996720679012 20.8357007575758  30.6860532407407 20.921875  C 30.5724344135802 21.0080492424242  30.4737654320988 21.0788352272727  30.3900462962963 21.1342329545455  C 30.3063271604938 21.1896306818182  30.1657986111111 21.2265625  29.9684606481481 21.2450284090909  C 29.7711226851852 21.2634943181818  29.6365740740741 21.2758049242424  29.5648148148148 21.2819602272727  C 29.4930555555556 21.288115530303  29.3405671296296 21.288115530303  29.107349537037 21.2819602272727  C 28.8741319444444 21.2758049242424  28.7395833333333 21.2727272727273  28.7037037037037 21.2727272727273  C 28.7037037037037 22.5776515151515  28.2552083333333 23.6917613636364  27.3582175925926 24.6150568181818  C 26.4612268518519 25.5383522727273  25.3788580246914 26  24.1111111111111 26  C 22.8433641975309 26  21.7609953703704 25.5383522727273  20.8640046296296 24.6150568181818  C 19.9670138888889 23.6917613636364  19.5185185185185 22.5776515151515  19.5185185185185 21.2727272727273  L 12.6296296296296 21.2727272727273  C 12.6296296296296 22.5776515151515  12.1811342592593 23.6917613636364  11.2841435185185 24.6150568181818  C 10.3871527777778 25.5383522727273  9.30478395061728 26  8.03703703703704 26  C 6.76929012345679 26  5.6869212962963 25.5383522727273  4.78993055555556 24.6150568181818  C 3.89293981481481 23.6917613636364  3.44444444444444 22.5776515151515  3.44444444444444 21.2727272727273  L 2.2962962962963 21.2727272727273  C 2.26041666666667 21.2727272727273  2.12586805555556 21.2758049242424  1.89265046296296 21.2819602272727  C 1.65943287037037 21.288115530303  1.50694444444444 21.288115530303  1.43518518518519 21.2819602272727  C 1.36342592592593 21.2758049242424  1.22887731481481 21.2634943181818  1.03153935185185 21.2450284090909  C 0.834201388888889 21.2265625  0.693672839506173 21.1896306818182  0.609953703703704 21.1342329545455  C 0.526234567901235 21.0788352272727  0.427565586419753 21.0080492424242  0.313946759259259 20.921875  C 0.200327932098766 20.8357007575758  0.119598765432099 20.7218276515152  0.0717592592592593 20.5802556818182  C 0.0239197530864199 20.4386837121212  0 20.2755681818182  0 20.0909090909091  C 0 19.7708333333333  0.113618827160494 19.4938446969697  0.340856481481482 19.2599431818182  C 0.568094135802469 19.0260416666667  0.837191358024692 18.9090909090909  1.14814814814815 18.9090909090909  L 1.14814814814815 13  C 1.14814814814815 12.9015151515152  1.14515817901235 12.6860795454545  1.13917824074074 12.3536931818182  C 1.13319830246914 12.0213068181818  1.13319830246914 11.7874053030303  1.13917824074074 11.6519886363636  C 1.14515817901235 11.516571969697  1.16010802469136 11.3042140151515  1.18402777777778 11.0149147727273  C 1.2079475308642 10.725615530303  1.24681712962963 10.4978693181818  1.30063657407407 10.3316761363636  C 1.35445601851852 10.1654829545455  1.43817515432099 9.97774621212121  1.55179398148148 9.76846590909091  C 1.66541280864198 9.55918560606061  1.79996141975309 9.37452651515152  1.95543981481481 9.21448863636363  L 5.50752314814815 5.55823863636364  C 5.73476080246914 5.32433712121212  6.03674768518519 5.12736742424242  6.4134837962963 4.96732954545455  C 6.79021990740741 4.80729166666666  7.1400462962963 4.72727272727273  7.46296296296296 4.72727272727273  L 10.3333333333333 4.72727272727273  L 10.3333333333333 1.18181818181818  C 10.3333333333333 0.861742424242423  10.4469521604938 0.584753787878784  10.6741898148148 0.350852272727274  C 10.9014274691358 0.116950757575755  11.170524691358 0  11.4814814814815 0  L 29.8518518518519 0  C 30.1628086419753 0  30.4319058641975 0.116950757575755  30.6591435185185 0.350852272727274  Z " fill-rule="nonzero" fill="#bce0fd" stroke="none" transform="matrix(1 0 0 1 278 253 )" />
  </g>
</svg>