<?xml version="1.0" encoding="utf-8"?>
<svg version="1.1" xmlns:xlink="http://www.w3.org/1999/xlink" width="40px" height="40px" xmlns="http://www.w3.org/2000/svg">
  <g transform="matrix(1 0 0 1 -226 -996 )">
    <path d="M 7.5 0  L 32.5 0  C 34.5659722222222 0  36.3324652777778 0.733506944444442  37.7994791666667 2.20052083333333  C 39.2664930555556 3.66753472222222  40 5.43402777777777  40 7.5  L 40 32.5  C 40 34.5659722222222  39.2664930555556 36.3324652777778  37.7994791666667 37.7994791666667  C 36.3324652777778 39.2664930555556  34.5659722222222 40  32.5 40  L 27 40  L 27 24.5052083333333  L 32.7864583333333 24.5052083333333  L 33.5677083333333 18.4635416666667  L 27.6041666666667 18.4635416666667  L 27.6041666666667 14.609375  C 27.6041666666667 13.6371527777778  27.8081597222222 12.9079861111111  28.2161458333333 12.421875  C 28.6241319444444 11.9357638888889  29.4184027777778 11.6927083333333  30.5989583333333 11.6927083333333  L 33.7760416666667 11.6666666666667  L 33.7760416666667 6.27604166666667  C 32.6822916666667 6.11979166666667  31.1371527777778 6.04166666666667  29.140625 6.04166666666667  C 26.7795138888889 6.04166666666667  24.8914930555556 6.73611111111111  23.4765625 8.125  C 22.0616319444444 9.51388888888889  21.3541666666667 11.4756944444444  21.3541666666667 14.0104166666667  L 21.3541666666667 18.4635416666667  L 16.1458333333333 18.4635416666667  L 16.1458333333333 24.5052083333333  L 21 24.5052083333333  L 21 40  L 7.5 40  C 5.43402777777778 40  3.66753472222222 39.2664930555556  2.20052083333333 37.7994791666667  C 0.733506944444444 36.3324652777778  0 34.5659722222222  0 32.5  L 0 7.5  C 0 5.43402777777777  0.733506944444444 3.66753472222222  2.20052083333333 2.20052083333333  C 3.66753472222222 0.733506944444442  5.43402777777778 0  7.5 0  Z " fill-rule="nonzero" fill="#2699fb" stroke="none" transform="matrix(1 0 0 1 226 996 )" />
  </g>
</svg>