<?xml version="1.0" encoding="utf-8"?>
<svg version="1.1" xmlns:xlink="http://www.w3.org/1999/xlink" width="40px" height="28px" xmlns="http://www.w3.org/2000/svg">
  <g transform="matrix(1 0 0 1 -382 -1002 )">
    <path d="M 16 7.97777777777778  L 16 19.1555555555556  L 26.6666666666667 13.6  L 16 7.97777777777778  Z M 6.02006688963211 0.399999999999999  C 9.75102192493497 0.133333333333333  14.4109996283909 0  20 0  C 22.4972129319955 0  24.908955778521 0.0333333333333332  27.2352285395764 0.0999999999999996  C 29.5615013006317 0.166666666666666  31.2671869193608 0.237037037037035  32.3522853957637 0.31111111111111  L 33.9799331103679 0.399999999999999  C 33.9947974730583 0.399999999999999  34.1211445559272 0.41111111111111  34.3589743589744 0.433333333333332  C 34.5968041620216 0.455555555555557  34.7677443329617 0.477777777777779  34.8717948717949 0.500000000000001  C 34.975845410628 0.522222222222223  35.1505016722408 0.555555555555557  35.3957636566332 0.600000000000001  C 35.6410256410256 0.644444444444445  35.8528428093645 0.7037037037037  36.0312151616499 0.777777777777778  C 36.2095875139353 0.85185185185185  36.4176885916016 0.948148148148144  36.6555183946488 1.06666666666667  C 36.893348197696 1.18518518518518  37.123745819398 1.32962962962963  37.3467112597547 1.5  C 37.5696767001115 1.67037037037037  37.785209959123 1.86666666666667  37.9933110367893 2.08888888888889  C 38.082497212932 2.17777777777778  38.197696023783 2.31481481481481  38.3389074693423 2.5  C 38.4801189149015 2.68518518518518  38.695652173913 3.11851851851852  38.9855072463768 3.8  C 39.2753623188406 4.48148148148148  39.472315124489 5.22962962962963  39.5763656633222 6.04444444444444  C 39.6952805648458 6.99259259259259  39.7881828316611 8.0037037037037  39.8550724637681 9.07777777777778  C 39.9219620958751 10.1518518518519  39.9628390932739 10.9925925925926  39.9777034559643 11.6  L 39.9777034559643 12.4888888888889  L 39.9777034559643 15.5111111111111  C 39.9925678186548 17.6592592592593  39.8587885544407 19.8074074074074  39.5763656633222 21.9555555555556  C 39.472315124489 22.7703703703704  39.2865105908584 23.5074074074074  39.0189520624303 24.1666666666667  C 38.7513935340022 24.8259259259259  38.513563730955 25.2814814814815  38.3054626532887 25.5333333333333  L 37.9933110367893 25.9111111111111  C 37.785209959123 26.1333333333333  37.5696767001115 26.3296296296296  37.3467112597547 26.5  C 37.123745819398 26.6703703703704  36.893348197696 26.8111111111111  36.6555183946488 26.9222222222222  C 36.4176885916016 27.0333333333333  36.2095875139353 27.1259259259259  36.0312151616499 27.2  C 35.8528428093645 27.2740740740741  35.6410256410256 27.3333333333333  35.3957636566332 27.3777777777778  C 35.1505016722408 27.4222222222222  34.9721293199554 27.4555555555556  34.860646599777 27.4777777777778  C 34.7491638795987 27.5  34.5782237086585 27.5222222222222  34.3478260869565 27.5444444444444  C 34.1174284652546 27.5666666666667  33.9947974730583 27.5777777777778  33.9799331103679 27.5777777777778  C 30.248978075065 27.8592592592593  25.5890003716091 28  20 28  C 16.9230769230769 27.9703703703704  14.2512077294686 27.9222222222222  11.984392419175 27.8555555555556  C 9.71757710888146 27.7888888888889  8.22742474916388 27.7333333333333  7.5139353400223 27.6888888888889  L 6.42140468227425 27.6  L 5.61872909698997 27.5111111111111  C 5.08361204013378 27.437037037037  4.67855815681903 27.362962962963  4.40356744704571 27.2888888888889  C 4.12857673727239 27.2148148148148  3.74953548866592 27.0592592592593  3.26644370122631 26.8222222222222  C 2.7833519137867 26.5851851851852  2.36343366778149 26.2814814814815  2.0066889632107 25.9111111111111  C 1.917502787068 25.8222222222222  1.80230397621702 25.6851851851852  1.66109253065775 25.5  C 1.51988108509848 25.3148148148148  1.30434782608696 24.8814814814815  1.01449275362319 24.2  C 0.72463768115942 23.5185185185185  0.527684875510962 22.7703703703704  0.423634336677815 21.9555555555556  C 0.304719435154218 21.0074074074074  0.211817168338908 19.9962962962963  0.144927536231884 18.9222222222222  C 0.0780379041248607 17.8481481481481  0.0371609067261241 17.0074074074074  0.0222965440356745 16.4  L 0.0222965440356745 15.5111111111111  L 0.0222965440356745 12.4888888888889  C 0.00743218134522482 10.3407407407407  0.141211445559272 8.19259259259259  0.423634336677815 6.04444444444444  C 0.527684875510962 5.22962962962963  0.713489409141583 4.49259259259259  0.981047937569677 3.83333333333333  C 1.24860646599777 3.17407407407407  1.48643626904496 2.71851851851852  1.69453734671126 2.46666666666667  L 2.0066889632107 2.08888888888889  C 2.214790040877 1.86666666666667  2.43032329988852 1.67037037037037  2.65328874024526 1.5  C 2.87625418060201 1.32962962962963  3.10665180230398 1.18518518518518  3.34448160535117 1.06666666666667  C 3.58231140839837 0.948148148148144  3.79041248606466 0.85185185185185  3.96878483835006 0.777777777777778  C 4.14715719063545 0.7037037037037  4.35897435897436 0.644444444444445  4.60423634336678 0.600000000000001  C 4.8494983277592 0.555555555555557  5.02415458937198 0.522222222222223  5.12820512820513 0.500000000000001  C 5.23225566703828 0.477777777777779  5.40319583797845 0.455555555555557  5.64102564102564 0.433333333333332  C 5.87885544407284 0.41111111111111  6.00520252694166 0.399999999999999  6.02006688963211 0.399999999999999  Z " fill-rule="nonzero" fill="#00734a" stroke="none" transform="matrix(1 0 0 1 382 1002 )" />
  </g>
</svg>