<?xml version="1.0" encoding="utf-8"?>
<svg version="1.1" xmlns:xlink="http://www.w3.org/1999/xlink" width="40px" height="40px" xmlns="http://www.w3.org/2000/svg">
  <g transform="matrix(1 0 0 1 -304 -996 )">
    <path d="M 24.7135416666667 24.7135416666667  C 26.015625 23.4114583333333  26.6666666666667 21.8402777777778  26.6666666666667 20  C 26.6666666666667 18.1597222222222  26.015625 16.5885416666667  24.7135416666667 15.2864583333333  C 23.4114583333333 13.984375  21.8402777777778 13.3333333333333  20 13.3333333333333  C 18.1597222222222 13.3333333333333  16.5885416666667 13.984375  15.2864583333333 15.2864583333333  C 13.984375 16.5885416666667  13.3333333333333 18.1597222222222  13.3333333333333 20  C 13.3333333333333 21.8402777777778  13.984375 23.4114583333333  15.2864583333333 24.7135416666667  C 16.5885416666667 26.015625  18.1597222222222 26.6666666666667  20 26.6666666666667  C 21.8402777777778 26.6666666666667  23.4114583333333 26.015625  24.7135416666667 24.7135416666667  Z M 27.265625 12.734375  C 29.2621527777778 14.7309027777778  30.2604166666667 17.1527777777778  30.2604166666667 20  C 30.2604166666667 22.8472222222222  29.2621527777778 25.2690972222222  27.265625 27.265625  C 25.2690972222222 29.2621527777778  22.8472222222222 30.2604166666667  20 30.2604166666667  C 17.1527777777778 30.2604166666667  14.7309027777778 29.2621527777778  12.734375 27.265625  C 10.7378472222222 25.2690972222222  9.73958333333333 22.8472222222222  9.73958333333333 20  C 9.73958333333333 17.1527777777778  10.7378472222222 14.7309027777778  12.734375 12.734375  C 14.7309027777778 10.7378472222222  17.1527777777778 9.73958333333334  20 9.73958333333334  C 22.8472222222222 9.73958333333334  25.2690972222222 10.7378472222222  27.265625 12.734375  Z M 32.3697916666667 7.63020833333333  C 32.8385416666667 8.09895833333334  33.0729166666667 8.66319444444444  33.0729166666667 9.32291666666666  C 33.0729166666667 9.98263888888889  32.8385416666667 10.546875  32.3697916666667 11.015625  C 31.9010416666667 11.484375  31.3368055555556 11.71875  30.6770833333333 11.71875  C 30.0173611111111 11.71875  29.453125 11.484375  28.984375 11.015625  C 28.515625 10.546875  28.28125 9.98263888888889  28.28125 9.32291666666666  C 28.28125 8.66319444444444  28.515625 8.09895833333334  28.984375 7.63020833333333  C 29.453125 7.16145833333333  30.0173611111111 6.92708333333333  30.6770833333333 6.92708333333333  C 31.3368055555556 6.92708333333333  31.9010416666667 7.16145833333333  32.3697916666667 7.63020833333333  Z M 21.9921875 3.58072916666667  C 20.7855902777778 3.58940972222222  20.1215277777778 3.59375  20 3.59375  C 19.8784722222222 3.59375  19.2144097222222 3.58940972222222  18.0078125 3.58072916666667  C 16.8012152777778 3.57204861111111  15.8854166666667 3.57204861111111  15.2604166666667 3.58072916666667  C 14.6354166666667 3.58940972222222  13.7977430555556 3.61545138888889  12.7473958333333 3.65885416666667  C 11.6970486111111 3.70225694444444  10.8029513888889 3.7890625  10.0651041666667 3.91927083333333  C 9.32725694444444 4.04947916666667  8.70659722222222 4.21006944444444  8.203125 4.40104166666667  C 7.33506944444445 4.74826388888889  6.57118055555556 5.25173611111111  5.91145833333333 5.91145833333333  C 5.25173611111111 6.57118055555555  4.74826388888889 7.33506944444444  4.40104166666667 8.203125  C 4.21006944444444 8.70659722222222  4.04947916666667 9.32725694444444  3.91927083333333 10.0651041666667  C 3.7890625 10.8029513888889  3.70225694444444 11.6970486111111  3.65885416666667 12.7473958333333  C 3.61545138888889 13.7977430555556  3.58940972222222 14.6354166666667  3.58072916666667 15.2604166666667  C 3.57204861111111 15.8854166666667  3.57204861111111 16.8012152777778  3.58072916666667 18.0078125  C 3.58940972222222 19.2144097222222  3.59375 19.8784722222222  3.59375 20  C 3.59375 20.1215277777778  3.58940972222222 20.7855902777778  3.58072916666667 21.9921875  C 3.57204861111111 23.1987847222222  3.57204861111111 24.1145833333333  3.58072916666667 24.7395833333333  C 3.58940972222222 25.3645833333333  3.61545138888889 26.2022569444444  3.65885416666667 27.2526041666667  C 3.70225694444444 28.3029513888889  3.7890625 29.1970486111111  3.91927083333333 29.9348958333333  C 4.04947916666667 30.6727430555556  4.21006944444444 31.2934027777778  4.40104166666667 31.796875  C 4.74826388888889 32.6649305555556  5.25173611111111 33.4288194444444  5.91145833333333 34.0885416666667  C 6.57118055555556 34.7482638888889  7.33506944444445 35.2517361111111  8.203125 35.5989583333333  C 8.70659722222222 35.7899305555556  9.32725694444444 35.9505208333333  10.0651041666667 36.0807291666667  C 10.8029513888889 36.2109375  11.6970486111111 36.2977430555556  12.7473958333333 36.3411458333333  C 13.7977430555556 36.3845486111111  14.6354166666667 36.4105902777778  15.2604166666667 36.4192708333333  C 15.8854166666667 36.4279513888889  16.8012152777778 36.4279513888889  18.0078125 36.4192708333333  C 19.2144097222222 36.4105902777778  19.8784722222222 36.40625  20 36.40625  C 20.1215277777778 36.40625  20.7855902777778 36.4105902777778  21.9921875 36.4192708333333  C 23.1987847222222 36.4279513888889  24.1145833333333 36.4279513888889  24.7395833333333 36.4192708333333  C 25.3645833333333 36.4105902777778  26.2022569444444 36.3845486111111  27.2526041666667 36.3411458333333  C 28.3029513888889 36.2977430555556  29.1970486111111 36.2109375  29.9348958333333 36.0807291666667  C 30.6727430555556 35.9505208333333  31.2934027777778 35.7899305555556  31.796875 35.5989583333333  C 32.6649305555556 35.2517361111111  33.4288194444444 34.7482638888889  34.0885416666667 34.0885416666667  C 34.7482638888889 33.4288194444444  35.2517361111111 32.6649305555556  35.5989583333333 31.796875  C 35.7899305555556 31.2934027777778  35.9505208333333 30.6727430555556  36.0807291666667 29.9348958333333  C 36.2109375 29.1970486111111  36.2977430555556 28.3029513888889  36.3411458333333 27.2526041666667  C 36.3845486111111 26.2022569444444  36.4105902777778 25.3645833333333  36.4192708333333 24.7395833333333  C 36.4279513888889 24.1145833333333  36.4279513888889 23.1987847222222  36.4192708333333 21.9921875  C 36.4105902777778 20.7855902777778  36.40625 20.1215277777778  36.40625 20  C 36.40625 19.8784722222222  36.4105902777778 19.2144097222222  36.4192708333333 18.0078125  C 36.4279513888889 16.8012152777778  36.4279513888889 15.8854166666667  36.4192708333333 15.2604166666667  C 36.4105902777778 14.6354166666667  36.3845486111111 13.7977430555556  36.3411458333333 12.7473958333333  C 36.2977430555556 11.6970486111111  36.2109375 10.8029513888889  36.0807291666667 10.0651041666667  C 35.9505208333333 9.32725694444444  35.7899305555556 8.70659722222222  35.5989583333333 8.203125  C 35.2517361111111 7.33506944444444  34.7482638888889 6.57118055555555  34.0885416666667 5.91145833333333  C 33.4288194444444 5.25173611111111  32.6649305555556 4.74826388888889  31.796875 4.40104166666667  C 31.2934027777778 4.21006944444444  30.6727430555556 4.04947916666667  29.9348958333333 3.91927083333333  C 29.1970486111111 3.7890625  28.3029513888889 3.70225694444444  27.2526041666667 3.65885416666667  C 26.2022569444444 3.61545138888889  25.3645833333333 3.58940972222222  24.7395833333333 3.58072916666667  C 24.1145833333333 3.57204861111111  23.1987847222222 3.57204861111111  21.9921875 3.58072916666667  Z M 39.8697916666667 11.7447916666667  C 39.9565972222222 13.2725694444444  40 16.0243055555556  40 20  C 40 23.9756944444444  39.9565972222222 26.7274305555556  39.8697916666667 28.2552083333333  C 39.6961805555556 31.8663194444444  38.6197916666667 34.6614583333333  36.640625 36.640625  C 34.6614583333333 38.6197916666667  31.8663194444444 39.6961805555556  28.2552083333333 39.8697916666667  C 26.7274305555556 39.9565972222222  23.9756944444444 40  20 40  C 16.0243055555556 40  13.2725694444444 39.9565972222222  11.7447916666667 39.8697916666667  C 8.13368055555556 39.6961805555556  5.33854166666667 38.6197916666667  3.359375 36.640625  C 1.38020833333333 34.6614583333333  0.303819444444444 31.8663194444444  0.130208333333333 28.2552083333333  C 0.0434027777777778 26.7274305555556  0 23.9756944444444  0 20  C 0 16.0243055555556  0.0434027777777778 13.2725694444444  0.130208333333333 11.7447916666667  C 0.303819444444444 8.13368055555555  1.38020833333333 5.33854166666667  3.359375 3.359375  C 5.33854166666667 1.38020833333333  8.13368055555556 0.303819444444442  11.7447916666667 0.130208333333335  C 13.2725694444444 0.0434027777777724  16.0243055555556 0  20 0  C 23.9756944444444 0  26.7274305555556 0.0434027777777724  28.2552083333333 0.130208333333335  C 31.8663194444444 0.303819444444442  34.6614583333333 1.38020833333333  36.640625 3.359375  C 38.6197916666667 5.33854166666667  39.6961805555556 8.13368055555555  39.8697916666667 11.7447916666667  Z " fill-rule="nonzero" fill="#00734a" stroke="none" transform="matrix(1 0 0 1 304 996 )" />
  </g>
</svg>