<?xml version="1.0" encoding="utf-8"?>
<svg version="1.1" xmlns:xlink="http://www.w3.org/1999/xlink" width="33px" height="26px" xmlns="http://www.w3.org/2000/svg">
  <g transform="matrix(1 0 0 1 -278 -255 )">
    <path d="M 2.75 0  L 30.25 0  C 31.00625 0  31.6536458333333 0.26519097222222  32.1921875 0.795572916666668  C 32.7307291666667 1.32595486111111  33 1.96354166666667  33 2.70833333333333  L 33 23.2916666666667  C 33 24.0364583333333  32.7307291666667 24.6740451388889  32.1921875 25.2044270833333  C 31.6536458333333 25.7348090277778  31.00625 26  30.25 26  L 2.75 26  C 1.99375 26  1.34635416666667 25.7348090277778  0.8078125 25.2044270833333  C 0.269270833333333 24.6740451388889  0 24.0364583333333  0 23.2916666666667  L 0 2.70833333333333  C 0 1.96354166666667  0.269270833333333 1.32595486111111  0.8078125 0.795572916666668  C 1.34635416666667 0.26519097222222  1.99375 0  2.75 0  Z M 30.25 2.16666666666667  L 2.75 2.16666666666667  C 2.60104166666667 2.16666666666667  2.47213541666667 2.22026909722222  2.36328125 2.32747395833333  C 2.25442708333333 2.43467881944444  2.2 2.56163194444444  2.2 2.70833333333333  L 2.2 7  L 30.8 7  L 30.8 2.70833333333333  C 30.8 2.56163194444444  30.7455729166667 2.43467881944444  30.63671875 2.32747395833333  C 30.5278645833333 2.22026909722222  30.3989583333333 2.16666666666667  30.25 2.16666666666667  Z M 2.75 23.8333333333333  L 30.25 23.8333333333333  C 30.3989583333333 23.8333333333333  30.5278645833333 23.7797309027778  30.63671875 23.6725260416667  C 30.7455729166667 23.5653211805556  30.8 23.4383680555556  30.8 23.2916666666667  L 30.8 13  L 2.2 13  L 2.2 23.2916666666667  C 2.2 23.4383680555556  2.25442708333333 23.5653211805556  2.36328125 23.6725260416667  C 2.47213541666667 23.7797309027778  2.60104166666667 23.8333333333333  2.75 23.8333333333333  Z M 8.8 21.6666666666667  L 4.4 21.6666666666667  L 4.4 19.5  L 8.8 19.5  L 8.8 21.6666666666667  Z M 17.6 21.6666666666667  L 11 21.6666666666667  L 11 19.5  L 17.6 19.5  L 17.6 21.6666666666667  Z " fill-rule="nonzero" fill="#bce0fd" stroke="none" transform="matrix(1 0 0 1 278 255 )" />
  </g>
</svg>