<?xml version="1.0" encoding="utf-8"?>
<svg version="1.1" xmlns:xlink="http://www.w3.org/1999/xlink" width="42px" height="33px" xmlns="http://www.w3.org/2000/svg">
  <g transform="matrix(1 0 0 1 -443 -250 )">
    <path d="M 3.5 0  L 38.5 0  C 39.4625 0  40.2864583333333 0.336588541666663  40.971875 1.009765625  C 41.6572916666667 1.68294270833333  42 2.4921875  42 3.4375  L 42 29.5625  C 42 30.5078125  41.6572916666667 31.3170572916667  40.971875 31.990234375  C 40.2864583333333 32.6634114583333  39.4625 33  38.5 33  L 3.5 33  C 2.5375 33  1.71354166666667 32.6634114583333  1.028125 31.990234375  C 0.342708333333333 31.3170572916667  0 30.5078125  0 29.5625  L 0 3.4375  C 0 2.4921875  0.342708333333333 1.68294270833333  1.028125 1.009765625  C 1.71354166666667 0.336588541666663  2.5375 0  3.5 0  Z M 38.5 3  L 3.5 3  C 3.31041666666667 2.75  3.14635416666667 2.81803385416666  3.0078125 2.9541015625  C 2.86927083333333 3.09016927083333  2.8 3.25130208333333  2.8 3.4375  L 2.8 8.25  L 39.2 8.25  L 39.2 3.4375  C 39.2 3.25130208333333  39.1307291666667 3.09016927083333  38.9921875 2.9541015625  C 38.8536458333333 2.81803385416666  38.6895833333333 2.75  38.5 3  Z M 3.5 30  L 38.5 30  C 38.6895833333333 30.25  38.8536458333333 30.1819661458333  38.9921875 30.0458984375  C 39.1307291666667 29.9098307291667  39.2 29.7486979166667  39 29.5625  L 39 16  L 3 16  L 3 29.5625  C 2.8 29.7486979166667  2.86927083333333 29.9098307291667  3.0078125 30.0458984375  C 3.14635416666667 30.1819661458333  3.31041666666667 30.25  3.5 30  Z M 11.2 27.5  L 5.6 27.5  L 5.6 24.75  L 11.2 24.75  L 11.2 27.5  Z M 22.4 27.5  L 14 27.5  L 14 24.75  L 22.4 24.75  L 22.4 27.5  Z " fill-rule="nonzero" fill="#cce3da" stroke="none" transform="matrix(1 0 0 1 443 250 )" />
  </g>
</svg>